<svg width="73" height="63" viewBox="0 0 73 63" fill="none" xmlns="http://www.w3.org/2000/svg">
<g opacity="0.1" clip-path="url(#clip0_2_289)">
<path d="M43.5419 51.8067C44.9474 51.3374 46.3357 50.9029 47.7008 50.422C49.7403 49.7356 51.6779 48.7748 53.4611 47.5658C56.3413 45.5669 57.9138 42.7512 58.6857 39.3967C59.2467 36.729 59.5457 34.0122 59.5785 31.2856C59.5649 31.2316 59.5455 31.1792 59.5209 31.1292H41.8138V0H72.9597C72.9597 0.179603 72.9597 0.347618 72.9597 0.515633C72.9597 11.1701 72.9597 21.8304 72.9597 32.4849C73 36.3841 72.5765 40.2742 71.6982 44.0722C70.212 50.1555 66.6694 54.6919 61.4449 57.9769C58.2779 59.9158 54.9447 61.5658 51.4853 62.9073C51.2204 63.0116 51.0648 63 50.9093 62.7451C48.4862 59.1414 46.0572 55.5455 43.6226 51.9573C43.5911 51.9098 43.5641 51.8593 43.5419 51.8067Z" fill="white"/>
<g filter="url(#filter0_d_2_289)">
<path d="M1.72232 51.801C3.13359 51.3375 4.5391 50.903 5.92157 50.4047C8.4847 49.5844 10.8654 48.2721 12.9318 46.5403C15.1438 44.5589 16.2958 41.9981 16.9295 39.1535C17.4474 36.5873 17.7327 33.9791 17.782 31.361C17.7776 31.2736 17.768 31.1865 17.7532 31.1003H0V0.00585938H31.1343C31.1343 0.173875 31.1343 0.341891 31.1343 0.504112C31.1343 11.1644 31.1343 21.8247 31.1343 32.485C31.1705 36.3556 30.7451 40.2166 29.867 43.9854C28.329 50.2772 24.5906 54.889 19.1702 58.2377C16.1337 60.0622 12.9529 61.6318 9.65998 62.9305C9.40077 63.0406 9.24524 63.0464 9.08396 62.7799C6.65312 59.1647 4.21652 55.5533 1.77416 51.9458C1.75352 51.8988 1.7362 51.8504 1.72232 51.801Z" fill="white"/>
</g>
</g>
<defs>
<filter id="filter0_d_2_289" x="-4" y="0.00585938" width="39.1364" height="70.9961" filterUnits="userSpaceOnUse" color-interpolation-filters="sRGB">
<feFlood flood-opacity="0" result="BackgroundImageFix"/>
<feColorMatrix in="SourceAlpha" type="matrix" values="0 0 0 0 0 0 0 0 0 0 0 0 0 0 0 0 0 0 127 0" result="hardAlpha"/>
<feOffset dy="4"/>
<feGaussianBlur stdDeviation="2"/>
<feComposite in2="hardAlpha" operator="out"/>
<feColorMatrix type="matrix" values="0 0 0 0 0 0 0 0 0 0 0 0 0 0 0 0 0 0 0.25 0"/>
<feBlend mode="normal" in2="BackgroundImageFix" result="effect1_dropShadow_2_289"/>
<feBlend mode="normal" in="SourceGraphic" in2="effect1_dropShadow_2_289" result="shape"/>
</filter>
<clipPath id="clip0_2_289">
<rect width="73" height="63" fill="white"/>
</clipPath>
</defs>
</svg>
