<svg width="631" height="287" viewBox="0 0 631 287" fill="none" xmlns="http://www.w3.org/2000/svg">
<path d="M137.487 90.5487L132.127 90.508L132.815 81.5459L138.174 81.5867L137.487 90.5487Z" fill="url(#paint0_linear_127_110)"/>
<path d="M89.6601 137.253L78.9248 137.375L79.3632 131.66L90.0992 131.529L89.6601 137.253Z" fill="url(#paint1_linear_127_110)"/>
<path d="M178.435 133.518L167.714 133.459L168.065 128.88L178.786 128.946L178.435 133.518Z" fill="url(#paint2_linear_127_110)"/>
<path d="M123.802 188.878C90.729 189.081 65.8863 162.432 68.4147 129.468C70.9432 96.5041 99.8765 69.5224 132.972 69.328C166.068 69.1335 190.888 95.7731 188.36 128.737C185.831 161.701 156.868 188.673 123.802 188.878ZM131.9 83.3035C106.56 83.4538 84.3657 104.131 82.4284 129.388C80.4911 154.645 99.5335 175.06 124.874 174.902C150.215 174.744 172.401 154.074 174.339 128.817C176.276 103.56 157.233 83.1449 131.9 83.3035Z" fill="url(#paint3_linear_127_110)"/>
<path d="M132.864 129.077C132.749 130.287 132.194 131.413 131.306 132.24C130.417 133.068 129.257 133.539 128.045 133.565C127.472 133.581 126.903 133.475 126.374 133.254C125.845 133.033 125.37 132.702 124.978 132.282C124.586 131.863 124.288 131.365 124.103 130.821C123.918 130.278 123.849 129.701 123.903 129.129C124.019 127.917 124.574 126.79 125.464 125.963C126.354 125.135 127.516 124.665 128.73 124.641C129.302 124.626 129.87 124.733 130.398 124.954C130.926 125.176 131.401 125.507 131.791 125.926C132.182 126.346 132.48 126.843 132.664 127.386C132.849 127.929 132.917 128.505 132.864 129.077Z" fill="url(#paint4_linear_127_110)"/>
<path d="M127.858 176.624L123.182 176.651L123.896 167.336L128.573 167.302L127.858 176.624Z" fill="url(#paint5_linear_127_110)"/>
<path d="M129.813 130.829L126.962 127.377L147.768 109.888L150.619 113.34L129.813 130.829Z" fill="url(#paint6_linear_127_110)"/>
<path d="M127.546 131.464L99.3696 124.56L100.838 120.03L129.014 126.934L127.546 131.464Z" fill="url(#paint7_linear_127_110)"/>
<path d="M137.493 158.687L125.118 122.1L127.351 121.194L139.719 157.787L137.493 158.687Z" fill="url(#paint8_linear_127_110)"/>
<path style="mix-blend-mode:screen" d="M125.115 122.131L126.222 125.419C125.926 125.609 125.652 125.831 125.403 126.079L100.851 120.062L99.3771 124.568L122.453 130.226C124.448 128.223 126.459 126.33 128.477 124.529L127.358 121.21L125.115 122.131ZM133.001 69.3611C99.9272 69.565 70.971 96.545 68.4431 129.501C66.8933 149.707 75.6346 167.53 90.2545 178.259C92.3042 173.551 94.5024 169.108 96.7898 164.903C92.1696 160.93 88.4772 155.987 85.974 150.423C83.4708 144.858 82.2182 138.81 82.3047 132.705L89.2156 132.665L89.5731 128.004L82.6006 128.047C85.1636 103.939 106.139 84.3379 130.367 83.3862L129.82 90.5117L134.489 90.4849L135.032 83.4053C141.189 83.7145 147.2 85.3883 152.634 88.3063C158.068 91.2244 162.789 95.3141 166.458 100.282C171.039 98.298 175.723 96.5602 180.488 95.0756C170.842 79.4465 153.514 69.2024 132.972 69.3282L133.001 69.3611ZM146.935 110.64L147.887 110.043L147.789 109.92L146.935 110.64Z" fill="url(#paint9_radial_127_110)"/>
<path d="M193.989 153.928L193.73 105.15L225.32 104.971L225.365 112.907L202.888 113.015L202.94 124.559L219.324 124.477L219.361 132.238L202.996 132.341L203.061 145.534L226.506 145.409L226.546 153.732L193.989 153.928Z" fill="#2984C4"/>
<path d="M232.986 153.727L232.804 118.57L240.446 118.524L240.48 122.619C241.725 121.123 243.263 119.899 244.998 119.022C246.668 118.217 248.499 117.808 250.352 117.824C252.173 117.741 253.981 118.169 255.573 119.062C257.077 120.016 258.268 121.392 258.999 123.02C260.551 121.372 262.377 120.01 264.395 118.993C266.238 118.137 268.246 117.699 270.276 117.711C272.787 117.573 275.253 118.423 277.148 120.08C278.006 120.93 278.677 121.952 279.116 123.079C279.555 124.205 279.753 125.412 279.698 126.621L279.834 153.532L271.535 153.576L271.405 129.361C271.49 128.1 271.131 126.848 270.388 125.826C270.049 125.41 269.616 125.081 269.125 124.865C268.635 124.648 268.1 124.552 267.565 124.583C266.252 124.605 264.962 124.929 263.793 125.53C262.46 126.235 261.257 127.163 260.237 128.276L260.354 153.634L252.25 153.67L252.138 130.388C252.237 128.896 251.922 127.406 251.228 126.083C250.937 125.628 250.529 125.26 250.048 125.019C249.566 124.777 249.028 124.67 248.49 124.71C247.121 124.733 245.776 125.074 244.561 125.706C243.241 126.381 242.071 127.318 241.12 128.458L241.265 153.682L232.986 153.727Z" fill="#2984C4"/>
<path d="M314.858 146.352C313.628 148.766 311.697 150.749 309.32 152.038C306.719 153.384 303.826 154.063 300.901 154.014C298.833 154.128 296.767 153.759 294.866 152.937C292.964 152.115 291.279 150.862 289.942 149.276C287.093 145.421 285.678 140.687 285.944 135.895C285.636 131.094 286.992 126.334 289.783 122.422C291.13 120.9 292.778 119.678 294.622 118.832C296.466 117.986 298.466 117.535 300.493 117.508C302.52 117.482 304.531 117.88 306.396 118.677C308.261 119.474 309.939 120.653 311.324 122.138C314.086 125.939 315.449 130.582 315.182 135.278C315.17 135.471 315.151 135.78 315.126 136.186C315.1 136.592 315.082 136.881 315.07 137.075L294.059 137.236C293.93 139.872 294.618 142.483 296.029 144.71C296.682 145.541 297.526 146.201 298.489 146.633C299.453 147.065 300.506 147.256 301.559 147.189C302.946 147.196 304.308 146.818 305.495 146.097C306.783 145.181 307.86 143.998 308.651 142.628L314.858 146.352ZM294.222 131.233L307.028 131.161C307.134 129.19 306.519 127.248 305.3 125.699C304.718 125.042 303.995 124.526 303.185 124.19C302.376 123.853 301.5 123.706 300.625 123.759C299.782 123.74 298.944 123.907 298.171 124.247C297.398 124.588 296.709 125.093 296.151 125.729C294.931 127.306 294.254 129.237 294.222 131.233Z" fill="#2984C4"/>
<path d="M321.641 153.234L321.479 118.078L329.371 118.029L329.414 123.85C330.324 121.962 331.643 120.301 333.275 118.99C334.641 117.921 336.325 117.343 338.058 117.349L338.732 117.392C338.867 117.38 339.004 117.388 339.136 117.417L339.195 126.071L338.791 126.046C336.994 126.051 335.234 126.559 333.71 127.513C332.132 128.529 330.844 129.939 329.973 131.605L330.078 153.141L321.641 153.234Z" fill="#2984C4"/>
<path d="M347.408 150.597C346.064 150.036 344.846 149.207 343.828 148.162C343.129 147.362 342.752 146.328 342.772 145.264C342.792 143.932 343.268 142.647 344.121 141.624C345.171 140.353 346.482 139.323 347.964 138.606C346.437 137.697 345.183 136.393 344.333 134.83C343.468 133.166 343.032 131.312 343.065 129.436C342.997 127.784 343.288 126.137 343.918 124.609C344.547 123.081 345.501 121.708 346.712 120.586C349.354 118.236 352.798 116.999 356.326 117.133C357.892 117.106 359.453 117.342 360.942 117.829C362.434 118.34 363.836 119.082 365.098 120.028C365.862 118.993 366.839 118.134 367.962 117.511C369.06 116.943 370.28 116.653 371.515 116.666L372.228 116.711L372.69 116.74L372.731 122.891L372.597 122.883C372.117 122.828 371.635 122.798 371.152 122.792C370.591 122.787 370.033 122.863 369.494 123.019C368.994 123.17 368.522 123.403 368.097 123.707C368.68 124.522 369.096 125.444 369.32 126.421C369.6 127.599 369.739 128.806 369.734 130.016C369.804 131.558 369.527 133.096 368.923 134.516C368.318 135.936 367.402 137.2 366.243 138.216C363.534 140.365 360.141 141.455 356.692 141.285C356.003 141.28 355.315 141.237 354.631 141.156C354.033 141.087 353.439 140.985 352.852 140.851C352.223 141.086 351.648 141.446 351.161 141.909C350.982 142.075 350.839 142.277 350.742 142.501C350.645 142.725 350.595 142.968 350.596 143.212C350.609 144.551 352.864 145.294 357.333 145.573L359.856 145.73C364.839 146.042 368.227 146.9 370.022 148.305C370.97 149.094 371.712 150.102 372.184 151.244C372.655 152.385 372.841 153.625 372.726 154.856C372.799 156.455 372.451 158.045 371.717 159.466C370.983 160.888 369.89 162.091 368.546 162.954C364.937 164.706 361.001 165.674 356.995 165.794C352.988 165.915 349.002 165.186 345.297 163.654C344.12 163.028 343.141 162.083 342.472 160.927C341.802 159.771 341.469 158.45 341.509 157.114C341.467 155.719 341.96 154.361 342.887 153.321C344.158 152.067 345.708 151.134 347.408 150.597ZM350.855 129.477C350.827 130.209 350.948 130.939 351.212 131.623C351.475 132.306 351.874 132.928 352.386 133.451C353.565 134.409 355.042 134.921 356.559 134.899C358.076 134.877 359.538 134.322 360.689 133.33C361.707 132.189 362.261 130.706 362.242 129.175C362.224 127.644 361.633 126.176 360.587 125.061C360.021 124.523 359.353 124.106 358.623 123.834C357.892 123.561 357.114 123.44 356.335 123.476C355.591 123.459 354.852 123.6 354.167 123.892C353.482 124.184 352.866 124.619 352.362 125.168C351.344 126.357 350.825 127.896 350.914 129.461L350.855 129.477ZM352.773 152.329C351.774 152.763 350.855 153.361 350.052 154.098C349.547 154.598 349.255 155.276 349.237 155.987C349.254 156.588 349.439 157.171 349.77 157.672C350.101 158.173 350.565 158.57 351.11 158.819C352.655 159.588 354.369 159.948 356.092 159.868C358.365 159.943 360.628 159.522 362.724 158.634C363.401 158.405 363.996 157.981 364.434 157.415C364.871 156.849 365.133 156.166 365.186 155.451C365.192 155.048 365.092 154.65 364.897 154.298C364.702 153.945 364.418 153.65 364.074 153.442C362.95 152.92 361.723 152.664 360.485 152.694L352.773 152.329Z" fill="#2984C4"/>
<path d="M404.323 145.871C403.091 148.277 401.169 150.257 398.805 151.559C396.206 152.906 393.312 153.579 390.387 153.515C388.317 153.634 386.248 153.27 384.343 152.451C382.438 151.632 380.749 150.38 379.408 148.795C376.566 144.938 375.158 140.205 375.429 135.415C375.115 130.608 376.473 125.84 379.27 121.922C380.614 120.402 382.26 119.179 384.103 118.333C385.945 117.488 387.943 117.037 389.969 117.01C391.995 116.983 394.004 117.381 395.867 118.178C397.731 118.975 399.408 120.153 400.791 121.638C403.562 125.442 404.932 130.093 404.667 134.798C404.655 134.991 404.637 135.281 404.612 135.687C404.586 136.093 404.567 136.402 404.555 136.595L383.546 136.737C383.413 139.373 384.101 141.985 385.515 144.211C386.161 145.05 387.005 145.715 387.969 146.148C388.934 146.58 389.991 146.767 391.045 146.69C392.436 146.721 393.804 146.341 394.981 145.598C396.289 144.7 397.375 143.514 398.157 142.13L404.323 145.871ZM383.707 130.753L396.513 130.681C396.626 128.709 396.011 126.765 394.785 125.22C394.201 124.559 393.475 124.041 392.662 123.705C391.849 123.368 390.969 123.222 390.091 123.278C389.246 123.248 388.405 123.41 387.63 123.751C386.856 124.092 386.168 124.604 385.617 125.248C384.408 126.83 383.738 128.76 383.707 130.753Z" fill="#2984C4"/>
<path d="M411.069 152.752L410.887 117.595L418.528 117.549L418.539 121.7C420.287 120.212 422.211 118.944 424.267 117.927C425.856 117.201 427.58 116.82 429.326 116.808C430.69 116.695 432.061 116.891 433.339 117.38C434.617 117.87 435.769 118.64 436.71 119.636C438.542 122.094 439.437 125.129 439.231 128.192L439.35 152.599L431.051 152.643L430.93 129.826C431.064 128.166 430.74 126.502 429.993 125.015C429.652 124.53 429.189 124.143 428.651 123.895C428.113 123.646 427.519 123.545 426.929 123.602C425.62 123.626 424.334 123.957 423.175 124.57C421.689 125.358 420.324 126.358 419.122 127.536L419.248 152.759L411.069 152.752Z" fill="#2984C4"/>
<path d="M467.837 140.782L474.298 144.154C473.274 146.872 471.432 149.205 469.027 150.826C466.485 152.408 463.538 153.208 460.549 153.128C458.438 153.283 456.32 152.95 454.359 152.154C452.397 151.359 450.643 150.124 449.233 148.542C446.64 145.471 445.331 140.934 445.307 134.933C445.007 130.156 446.42 125.428 449.292 121.604C450.632 119.988 452.324 118.702 454.239 117.846C456.153 116.991 458.238 116.588 460.332 116.669C463.307 116.576 466.241 117.381 468.754 118.98C471.139 120.617 472.926 122.989 473.843 125.738L466.903 128.795C466.458 127.265 465.625 125.877 464.487 124.765C463.507 123.901 462.235 123.446 460.931 123.495C459.826 123.429 458.723 123.665 457.741 124.177C456.759 124.69 455.934 125.46 455.354 126.406C453.977 129.183 453.369 132.28 453.594 135.373C453.416 138.17 454.018 140.962 455.334 143.434C455.88 144.294 456.646 144.99 457.553 145.45C458.461 145.909 459.474 146.115 460.488 146.045C462.01 146.074 463.501 145.617 464.747 144.74C466.102 143.712 467.167 142.348 467.837 140.782Z" fill="#2984C4"/>
<path d="M488.639 151.373L476.154 117.231L484.452 117.188L492.276 140.215L499.308 117.107L507.413 117.071L496.574 150.337C494.497 156.666 492.484 160.71 490.577 162.453C488.297 164.323 485.403 165.27 482.463 165.108C481.819 165.109 481.176 165.068 480.537 164.987C479.94 164.95 479.314 164.756 478.628 164.596L478.596 157.67C479.168 157.803 479.742 157.897 480.299 157.97C480.861 158.035 481.427 158.07 481.994 158.076C482.772 158.114 483.551 157.994 484.282 157.723C485.013 157.452 485.683 157.036 486.25 156.5C487.526 155.06 488.356 153.278 488.639 151.373Z" fill="#2984C4"/>
<path d="M208.902 193.767L204.042 184.271L203.947 193.709L195.723 193.639L195.954 167.311L208.2 167.409C210.1 167.368 211.983 167.777 213.697 168.602C215.091 169.274 216.262 170.337 217.066 171.663C217.806 173.012 218.171 174.535 218.125 176.074C218.131 177.754 217.605 179.392 216.621 180.751C215.559 182.157 214.068 183.174 212.375 183.649L217.997 193.777L208.902 193.767ZM204.073 178.766L207.339 178.806C207.977 178.858 208.61 178.667 209.113 178.27C209.332 178.053 209.501 177.79 209.607 177.5C209.714 177.211 209.756 176.901 209.73 176.593C209.748 176.293 209.704 175.992 209.601 175.709C209.498 175.426 209.337 175.168 209.13 174.95C208.892 174.737 208.614 174.574 208.313 174.469C208.012 174.364 207.693 174.32 207.375 174.339L204.107 174.312L204.073 178.766Z" fill="url(#paint10_linear_127_110)"/>
<path d="M224.83 192.843C223.192 191.997 221.835 190.69 220.927 189.083C220.006 187.317 219.533 185.351 219.55 183.357C219.566 181.364 220.072 179.406 221.021 177.655C221.974 176.067 223.356 174.783 225.007 173.953C226.775 173.084 228.725 172.657 230.691 172.707C232.662 172.684 234.608 173.146 236.358 174.053C237.997 174.904 239.353 176.215 240.26 177.827C241.183 179.59 241.657 181.555 241.638 183.546C241.62 185.538 241.109 187.494 240.153 189.24C239.215 190.839 237.829 192.127 236.167 192.942C234.403 193.823 232.451 194.256 230.482 194.202C228.516 194.213 226.577 193.747 224.83 192.843ZM232.481 186.171C233.079 185.389 233.368 184.413 233.292 183.431C233.367 182.467 233.099 181.508 232.536 180.724C232.306 180.436 232.015 180.204 231.684 180.045C231.352 179.887 230.989 179.805 230.622 179.807C230.252 179.794 229.885 179.868 229.548 180.022C229.211 180.176 228.915 180.406 228.682 180.695C228.093 181.481 227.805 182.454 227.871 183.435C227.801 184.396 228.063 185.351 228.613 186.141C228.842 186.437 229.137 186.675 229.474 186.837C229.81 186.999 230.18 187.08 230.553 187.074C230.92 187.08 231.284 187.003 231.617 186.849C231.951 186.695 232.246 186.468 232.48 186.185L232.481 186.171Z" fill="url(#paint11_linear_127_110)"/>
<path d="M244.297 177.843C244.95 176.339 246.018 175.055 247.375 174.141C248.697 173.3 250.237 172.867 251.802 172.897C253.028 172.873 254.239 173.173 255.312 173.769C256.267 174.299 257.046 175.1 257.552 176.071L257.577 173.2L265.771 173.282L265.557 194.286L257.363 194.204L257.382 191.403C256.858 192.365 256.064 193.152 255.099 193.666C254.014 194.242 252.798 194.521 251.572 194.474C250.008 194.484 248.476 194.025 247.174 193.156C245.817 192.224 244.753 190.922 244.109 189.403C242.633 185.713 242.668 181.586 244.207 177.92L244.297 177.843ZM256.72 181.094C256.438 180.796 256.1 180.559 255.725 180.395C255.35 180.231 254.946 180.145 254.537 180.141C254.128 180.137 253.722 180.216 253.344 180.372C252.966 180.529 252.623 180.76 252.336 181.052C251.78 181.804 251.476 182.713 251.466 183.649C251.457 184.584 251.744 185.499 252.286 186.261C252.567 186.558 252.905 186.796 253.28 186.96C253.655 187.123 254.059 187.21 254.468 187.214C254.877 187.218 255.283 187.139 255.661 186.982C256.039 186.826 256.382 186.595 256.669 186.303C257.279 185.575 257.591 184.642 257.54 183.693C257.608 182.753 257.314 181.823 256.72 181.094Z" fill="url(#paint12_linear_127_110)"/>
<path d="M269.513 178.054C270.169 176.556 271.236 175.277 272.59 174.366C273.907 173.513 275.45 173.08 277.017 173.122C278.237 173.095 279.443 173.391 280.514 173.979C281.463 174.518 282.236 175.322 282.739 176.293L282.818 166.882L291.056 166.954L290.803 194.471L282.566 194.4L282.585 191.599C282.063 192.553 281.281 193.339 280.33 193.864C279.247 194.432 278.037 194.71 276.817 194.673C275.251 194.678 273.721 194.214 272.42 193.341C271.063 192.415 269.999 191.117 269.354 189.603C267.877 185.907 267.913 181.776 269.453 178.105L269.513 178.054ZM281.936 181.305C281.654 181.007 281.316 180.77 280.941 180.606C280.566 180.442 280.162 180.356 279.753 180.352C279.344 180.348 278.938 180.427 278.56 180.583C278.182 180.74 277.839 180.971 277.552 181.263C276.996 182.015 276.691 182.924 276.682 183.86C276.673 184.795 276.96 185.71 277.502 186.472C277.783 186.769 278.121 187.007 278.496 187.171C278.871 187.334 279.275 187.421 279.684 187.425C280.093 187.429 280.499 187.35 280.877 187.193C281.255 187.037 281.598 186.806 281.885 186.514C282.441 185.762 282.746 184.853 282.755 183.917C282.764 182.981 282.477 182.067 281.936 181.305Z" fill="url(#paint13_linear_127_110)"/>
<path d="M298.634 193.838C297.219 193.267 295.98 192.331 295.042 191.124C294.175 190.01 293.656 188.664 293.55 187.254L301.454 187.314C301.478 187.589 301.561 187.855 301.697 188.096C301.832 188.336 302.018 188.544 302.241 188.705C302.729 189.023 303.301 189.184 303.882 189.168C304.24 189.185 304.594 189.09 304.895 188.895C305.005 188.817 305.096 188.714 305.161 188.595C305.225 188.476 305.262 188.344 305.269 188.209C305.271 187.978 305.196 187.752 305.056 187.569C304.916 187.385 304.718 187.254 304.494 187.197C303.636 186.901 302.757 186.669 301.865 186.505C300.606 186.26 299.367 185.926 298.155 185.505C297.164 185.137 296.287 184.514 295.612 183.699C294.843 182.696 294.467 181.446 294.554 180.184C294.545 178.936 294.912 177.714 295.605 176.677C296.341 175.585 297.378 174.73 298.588 174.216C300.132 173.578 301.794 173.28 303.461 173.342C305.849 173.222 308.197 173.986 310.059 175.488C311.643 176.892 312.649 178.837 312.882 180.945L305.58 180.876C305.486 180.356 305.21 179.887 304.801 179.555C304.346 179.212 303.786 179.041 303.218 179.069C302.879 179.048 302.542 179.13 302.25 179.303C302.138 179.385 302.05 179.493 301.991 179.619C301.933 179.744 301.907 179.882 301.915 180.02C301.882 180.452 302.165 180.768 302.68 180.976C303.482 181.28 304.312 181.508 305.157 181.656C306.452 181.912 307.728 182.258 308.975 182.692C310.01 183.098 310.921 183.767 311.621 184.632C312.428 185.705 312.822 187.034 312.731 188.375C312.736 189.578 312.346 190.749 311.623 191.709C310.822 192.761 309.744 193.566 308.51 194.035C306.999 194.618 305.387 194.895 303.768 194.848C302.007 194.853 300.262 194.509 298.634 193.838Z" fill="url(#paint14_linear_127_110)"/>
<path d="M316.934 170.9C316.521 170.542 316.192 170.096 315.972 169.594C315.752 169.092 315.646 168.547 315.662 167.999C315.652 167.441 315.765 166.886 315.992 166.376C316.22 165.865 316.556 165.411 316.978 165.045C317.971 164.296 319.182 163.897 320.424 163.908C321.666 163.92 322.869 164.342 323.847 165.11C324.26 165.483 324.587 165.942 324.806 166.455C325.025 166.968 325.13 167.522 325.114 168.08C325.12 168.629 325.005 169.172 324.775 169.671C324.546 170.17 324.209 170.611 323.789 170.963C322.836 171.771 321.608 172.179 320.363 172.102C319.11 172.144 317.888 171.715 316.934 170.9ZM324.425 173.787L324.211 194.791L315.974 194.719L316.187 173.715L324.425 173.787Z" fill="url(#paint15_linear_127_110)"/>
<path d="M328.139 178.571C328.796 177.07 329.863 175.787 331.217 174.869C332.539 174.028 334.078 173.595 335.643 173.625C336.865 173.603 338.07 173.903 339.139 174.496C340.085 175.034 340.857 175.832 341.366 176.796L341.445 167.385L349.682 167.457L349.429 194.988L341.191 194.917L341.23 192.047C340.705 193.004 339.917 193.79 338.96 194.311C337.882 194.891 336.669 195.171 335.447 195.121C333.883 195.13 332.352 194.671 331.05 193.802C329.692 192.87 328.629 191.568 327.984 190.05C326.507 186.359 326.542 182.232 328.083 178.566L328.139 178.571ZM340.561 181.822C340.28 181.524 339.941 181.287 339.566 181.123C339.191 180.959 338.787 180.873 338.378 180.869C337.969 180.865 337.564 180.944 337.186 181.1C336.808 181.257 336.465 181.488 336.177 181.78C335.621 182.532 335.317 183.441 335.308 184.376C335.299 185.312 335.586 186.227 336.127 186.989C336.408 187.286 336.747 187.524 337.122 187.688C337.497 187.851 337.901 187.938 338.31 187.941C338.719 187.945 339.124 187.867 339.502 187.71C339.88 187.554 340.223 187.323 340.511 187.031C341.124 186.311 341.436 185.38 341.38 184.435C341.451 183.491 341.157 182.555 340.561 181.822Z" fill="url(#paint16_linear_127_110)"/>
<path d="M373.409 186.163L360.173 186.044C360.285 187.861 361.027 188.758 362.408 188.78C362.821 188.797 363.229 188.686 363.576 188.462C363.923 188.238 364.193 187.911 364.349 187.528L373.062 187.594C372.778 189.086 372.123 190.482 371.158 191.652C370.174 192.835 368.936 193.779 367.537 194.415C366.037 195.111 364.402 195.464 362.749 195.449C360.838 195.462 358.953 194.999 357.264 194.103C355.67 193.243 354.366 191.929 353.516 190.326C352.635 188.551 352.186 186.591 352.204 184.608C352.223 182.624 352.709 180.673 353.623 178.914C354.5 177.33 355.823 176.042 357.428 175.212C359.147 174.334 361.058 173.903 362.987 173.956C364.896 173.942 366.779 174.394 368.474 175.274C370.042 176.105 371.337 177.372 372.204 178.923C373.121 180.65 373.569 182.589 373.505 184.545C373.513 185.086 373.481 185.627 373.409 186.163ZM365.211 182.479C365.233 182.182 365.186 181.883 365.074 181.607C364.962 181.331 364.788 181.085 364.565 180.888C364.088 180.522 363.502 180.329 362.902 180.34C362.594 180.305 362.282 180.332 361.985 180.419C361.687 180.506 361.41 180.651 361.169 180.847C360.928 181.042 360.728 181.283 360.58 181.557C360.433 181.83 360.341 182.13 360.31 182.439L365.211 182.479Z" fill="url(#paint17_linear_127_110)"/>
<path d="M399.586 199.704L397.113 195.52C394.089 195.937 391.012 195.347 388.356 193.839C386.323 192.683 384.642 190.994 383.491 188.954C382.28 186.84 381.672 184.432 381.734 181.995C381.738 179.548 382.405 177.148 383.664 175.052C384.862 173.043 386.576 171.393 388.627 170.275C390.723 169.163 393.063 168.591 395.435 168.612C397.806 168.632 400.135 169.244 402.212 170.392C404.233 171.548 405.904 173.231 407.049 175.262C408.094 177.214 408.675 179.383 408.747 181.597C408.819 183.812 408.381 186.014 407.467 188.032C406.668 189.761 405.501 191.293 404.049 192.521L409.331 199.793L399.586 199.704ZM391.39 186.337C392.392 187.355 393.755 187.933 395.181 187.946C396.607 187.958 397.98 187.403 399 186.402C399.951 185.195 400.439 183.686 400.374 182.149C400.466 180.606 400.009 179.081 399.083 177.846C398.589 177.338 398 176.934 397.349 176.656C396.699 176.378 396 176.231 395.293 176.225C394.585 176.219 393.884 176.354 393.229 176.621C392.573 176.888 391.977 177.282 391.474 177.781C390.512 178.993 390.022 180.515 390.098 182.062C390.007 183.596 390.466 185.112 391.39 186.337Z" fill="url(#paint18_linear_127_110)"/>
<path d="M433.886 174.743L433.672 195.746L425.435 195.675L425.47 192.483C424.803 193.475 423.912 194.294 422.87 194.876C421.688 195.502 420.364 195.811 419.029 195.772C417.967 195.816 416.91 195.615 415.938 195.186C414.966 194.757 414.105 194.111 413.42 193.296C412.003 191.419 411.308 189.092 411.464 186.742L411.573 174.573L419.769 174.641L419.664 185.843C419.618 186.698 419.892 187.539 420.434 188.201C420.704 188.493 421.033 188.723 421.4 188.877C421.766 189.031 422.161 189.104 422.559 189.092C422.959 189.121 423.36 189.061 423.733 188.915C424.107 188.769 424.444 188.542 424.719 188.249C425.272 187.59 425.561 186.748 425.529 185.887L425.625 174.613L433.886 174.743Z" fill="url(#paint19_linear_127_110)"/>
<path d="M441.684 194.749C440.046 193.898 438.69 192.586 437.783 190.975C436.823 189.228 436.348 187.257 436.404 185.263C436.37 183.267 436.883 181.299 437.888 179.576C438.825 177.98 440.206 176.693 441.861 175.872C443.638 175.027 445.582 174.596 447.548 174.614C449.515 174.631 451.451 175.096 453.212 175.972C454.85 176.818 456.206 178.125 457.115 179.733C458.074 181.479 458.55 183.451 458.493 185.444C458.527 187.445 458.013 189.417 457.008 191.146C456.067 192.738 454.687 194.024 453.035 194.849C451.267 195.716 449.318 196.143 447.351 196.095C445.381 196.118 443.435 195.656 441.684 194.749ZM449.35 188.064C449.86 187.26 450.135 186.328 450.144 185.375C450.153 184.422 449.895 183.486 449.401 182.673C449.171 182.381 448.878 182.146 448.544 181.985C448.211 181.823 447.845 181.74 447.474 181.74C447.104 181.736 446.738 181.815 446.402 181.971C446.066 182.127 445.769 182.356 445.533 182.642C444.943 183.429 444.66 184.403 444.736 185.384C444.653 186.344 444.911 187.302 445.465 188.088C445.7 188.374 445.995 188.605 446.329 188.764C446.663 188.924 447.028 189.008 447.398 189.011C447.767 189.014 448.133 188.936 448.47 188.782C448.807 188.628 449.106 188.402 449.346 188.12L449.35 188.064Z" fill="url(#paint20_linear_127_110)"/>
<path d="M474.074 189.035L474.012 196.037L470.899 196.008C465.165 195.961 462.322 193.076 462.37 187.352L462.415 181.849L459.832 181.819L459.885 174.942L462.482 174.959L462.534 169.904L470.758 169.974L470.72 175.03L474.126 175.067L474.059 181.943L470.652 181.92L470.6 187.521C470.583 187.717 470.605 187.915 470.665 188.103C470.725 188.29 470.821 188.464 470.949 188.613C471.284 188.86 471.695 188.981 472.11 188.954L474.074 189.035Z" fill="url(#paint21_linear_127_110)"/>
<path d="M497.377 187.235L484.141 187.117C484.253 188.933 484.994 189.845 486.376 189.853C486.789 189.872 487.198 189.761 487.545 189.537C487.893 189.313 488.162 188.985 488.316 188.6L497.028 188.68C496.736 190.143 496.083 191.509 495.131 192.655C494.147 193.838 492.909 194.782 491.51 195.418C490.012 196.119 488.375 196.472 486.722 196.452C484.811 196.465 482.926 196.002 481.237 195.106C479.644 194.246 478.34 192.932 477.489 191.329C476.569 189.573 476.118 187.607 476.18 185.624C476.158 183.636 476.645 181.676 477.595 179.93C478.475 178.35 479.798 177.063 481.4 176.228C483.13 175.388 485.03 174.958 486.953 174.972C488.875 174.986 490.769 175.443 492.487 176.308C494.071 177.145 495.376 178.429 496.241 180.001C497.158 181.728 497.607 183.667 497.542 185.623C497.527 186.164 497.472 186.703 497.377 187.235ZM489.206 183.554C489.228 183.257 489.18 182.958 489.068 182.683C488.956 182.407 488.782 182.16 488.56 181.963C488.084 181.597 487.498 181.404 486.898 181.415C486.59 181.38 486.278 181.407 485.98 181.494C485.683 181.581 485.406 181.726 485.164 181.921C484.923 182.117 484.723 182.358 484.576 182.631C484.428 182.905 484.337 183.205 484.306 183.514L489.206 183.554Z" fill="url(#paint22_linear_127_110)"/>
<path d="M102.637 165.221L172.994 162.488L162.492 185.3L163.792 207.656L93.4354 210.389L103.935 187.577L102.637 165.221Z" fill="url(#paint23_linear_127_110)"/>
<path d="M108.047 195.205L113.717 186.873L114.155 186.243C114.721 185.42 115.241 184.565 115.711 183.683C116.061 182.99 116.262 182.231 116.302 181.455C116.376 180.902 116.274 180.34 116.01 179.849C115.887 179.669 115.718 179.525 115.521 179.432C115.324 179.34 115.106 179.303 114.889 179.324C114.573 179.31 114.26 179.388 113.986 179.547C113.713 179.707 113.49 179.942 113.345 180.224C112.988 180.972 112.795 181.788 112.78 182.617L112.718 183.617L108.754 183.703L108.82 182.62C108.85 180.839 109.446 179.113 110.521 177.696C111.086 177.062 111.784 176.563 112.564 176.233C113.345 175.904 114.188 175.753 115.033 175.791C115.779 175.715 116.531 175.802 117.239 176.047C117.947 176.293 118.593 176.69 119.133 177.211C119.609 177.799 119.961 178.479 120.164 179.209C120.368 179.94 120.419 180.704 120.316 181.455C120.265 182.512 119.995 183.547 119.521 184.492C118.905 185.659 118.208 186.781 117.435 187.85L117.115 188.323L112.633 194.757L118.926 194.623L118.723 197.933L107.865 198.179L108.047 195.205Z" fill="white"/>
<path d="M128.574 192.137L121.958 192.254L122.153 189.088L128.637 175.796L133.445 175.709L132.63 188.977L134.755 188.938L134.565 192.025L132.441 192.063L132.133 197.079L128.266 197.143L128.574 192.137ZM128.763 189.05L129.321 179.975L125.427 189.111L128.763 189.05Z" fill="white"/>
<path d="M144.873 175.449L147.035 175.399L139.857 196.527L137.72 196.578L144.873 175.449Z" fill="white"/>
<path d="M155.667 179.137L150.234 179.234L150.412 176.334L159.581 176.169L159.429 178.641L154.134 196.144L150.423 196.214L155.667 179.137Z" fill="white"/>
<defs>
<linearGradient id="paint0_linear_127_110" x1="518.671" y1="180.222" x2="1237.28" y2="1390.16" gradientUnits="userSpaceOnUse">
<stop offset="0.11" stop-color="#FF4D4D"/>
<stop offset="0.24" stop-color="#FF4040"/>
<stop offset="0.49" stop-color="#FF2C2C"/>
<stop offset="0.75" stop-color="#FF2020"/>
<stop offset="1" stop-color="#FF1C1C"/>
</linearGradient>
<linearGradient id="paint1_linear_127_110" x1="81.5723" y1="372.743" x2="282.35" y2="1547.26" gradientUnits="userSpaceOnUse">
<stop offset="0.11" stop-color="#FF4D4D"/>
<stop offset="0.24" stop-color="#FF4040"/>
<stop offset="0.49" stop-color="#FF2C2C"/>
<stop offset="0.75" stop-color="#FF2020"/>
<stop offset="1" stop-color="#FF1C1C"/>
</linearGradient>
<linearGradient id="paint2_linear_127_110" x1="1287.86" y1="185.968" x2="1404.75" y2="1142.46" gradientUnits="userSpaceOnUse">
<stop offset="0.11" stop-color="#FF4D4D"/>
<stop offset="0.24" stop-color="#FF4040"/>
<stop offset="0.49" stop-color="#FF2C2C"/>
<stop offset="0.75" stop-color="#FF2020"/>
<stop offset="1" stop-color="#FF1C1C"/>
</linearGradient>
<linearGradient id="paint3_linear_127_110" x1="112.842" y1="79.6014" x2="152.303" y2="204.38" gradientUnits="userSpaceOnUse">
<stop offset="0.11" stop-color="#FF4D4D"/>
<stop offset="0.24" stop-color="#FF4040"/>
<stop offset="0.49" stop-color="#FF2C2C"/>
<stop offset="0.75" stop-color="#FF2020"/>
<stop offset="1" stop-color="#FF1C1C"/>
</linearGradient>
<linearGradient id="paint4_linear_127_110" x1="948.638" y1="945.017" x2="1412.68" y2="2405.57" gradientUnits="userSpaceOnUse">
<stop offset="0.11" stop-color="#FF4D4D"/>
<stop offset="0.24" stop-color="#FF4040"/>
<stop offset="0.49" stop-color="#FF2C2C"/>
<stop offset="0.75" stop-color="#FF2020"/>
<stop offset="1" stop-color="#FF1C1C"/>
</linearGradient>
<linearGradient id="paint5_linear_127_110" x1="266.777" y1="402.719" x2="1064.71" y2="1517.32" gradientUnits="userSpaceOnUse">
<stop offset="0.11" stop-color="#FF4D4D"/>
<stop offset="0.24" stop-color="#FF4040"/>
<stop offset="0.49" stop-color="#FF2C2C"/>
<stop offset="0.75" stop-color="#FF2020"/>
<stop offset="1" stop-color="#FF1C1C"/>
</linearGradient>
<linearGradient id="paint6_linear_127_110" x1="1641.22" y1="436.689" x2="2769.11" y2="4067.13" gradientUnits="userSpaceOnUse">
<stop offset="0.11" stop-color="#FF4D4D"/>
<stop offset="0.24" stop-color="#FF4040"/>
<stop offset="0.49" stop-color="#FF2C2C"/>
<stop offset="0.75" stop-color="#FF2020"/>
<stop offset="1" stop-color="#FF1C1C"/>
</linearGradient>
<linearGradient id="paint7_linear_127_110" x1="1202.36" y1="408.355" x2="1286.12" y2="2112.54" gradientUnits="userSpaceOnUse">
<stop offset="0.11" stop-color="#FF4D4D"/>
<stop offset="0.24" stop-color="#FF4040"/>
<stop offset="0.49" stop-color="#FF2C2C"/>
<stop offset="0.75" stop-color="#FF2020"/>
<stop offset="1" stop-color="#FF1C1C"/>
</linearGradient>
<linearGradient id="paint8_linear_127_110" x1="1006.74" y1="751.118" x2="4018.9" y2="4898.66" gradientUnits="userSpaceOnUse">
<stop offset="0.11" stop-color="#FF4D4D"/>
<stop offset="0.24" stop-color="#FF4040"/>
<stop offset="0.49" stop-color="#FF2C2C"/>
<stop offset="0.75" stop-color="#FF2020"/>
<stop offset="1" stop-color="#FF1C1C"/>
</linearGradient>
<radialGradient id="paint9_radial_127_110" cx="0" cy="0" r="1" gradientUnits="userSpaceOnUse" gradientTransform="translate(227.593 66.1388) rotate(4.38619) scale(174.241 174.77)">
<stop offset="0.22" stop-color="#FFAF7C"/>
<stop offset="0.23" stop-color="#F7A978"/>
<stop offset="0.32" stop-color="#BE825C"/>
<stop offset="0.41" stop-color="#8B5F44"/>
<stop offset="0.51" stop-color="#60422F"/>
<stop offset="0.6" stop-color="#3D2A1E"/>
<stop offset="0.7" stop-color="#221811"/>
<stop offset="0.8" stop-color="#0F0A07"/>
<stop offset="0.9" stop-color="#040302"/>
<stop offset="1"/>
</radialGradient>
<linearGradient id="paint10_linear_127_110" x1="4557.11" y1="5826.15" x2="4968.98" y2="5857.74" gradientUnits="userSpaceOnUse">
<stop offset="0.11" stop-color="#FF4D4D"/>
<stop offset="0.24" stop-color="#FF4040"/>
<stop offset="0.49" stop-color="#FF2C2C"/>
<stop offset="0.75" stop-color="#FF2020"/>
<stop offset="1" stop-color="#FF1C1C"/>
</linearGradient>
<linearGradient id="paint11_linear_127_110" x1="4676.62" y1="4746.83" x2="5026.44" y2="4773.66" gradientUnits="userSpaceOnUse">
<stop offset="0.11" stop-color="#FF4D4D"/>
<stop offset="0.24" stop-color="#FF4040"/>
<stop offset="0.49" stop-color="#FF2C2C"/>
<stop offset="0.75" stop-color="#FF2020"/>
<stop offset="1" stop-color="#FF1C1C"/>
</linearGradient>
<linearGradient id="paint12_linear_127_110" x1="5347.76" y1="4907.2" x2="5736.86" y2="4937.05" gradientUnits="userSpaceOnUse">
<stop offset="0.11" stop-color="#FF4D4D"/>
<stop offset="0.24" stop-color="#FF4040"/>
<stop offset="0.49" stop-color="#FF2C2C"/>
<stop offset="0.75" stop-color="#FF2020"/>
<stop offset="1" stop-color="#FF1C1C"/>
</linearGradient>
<linearGradient id="paint13_linear_127_110" x1="5704.31" y1="6094.88" x2="6093.42" y2="6124.73" gradientUnits="userSpaceOnUse">
<stop offset="0.11" stop-color="#FF4D4D"/>
<stop offset="0.24" stop-color="#FF4040"/>
<stop offset="0.49" stop-color="#FF2C2C"/>
<stop offset="0.75" stop-color="#FF2020"/>
<stop offset="1" stop-color="#FF1C1C"/>
</linearGradient>
<linearGradient id="paint14_linear_127_110" x1="5157" y1="4703.03" x2="5422.9" y2="4723.42" gradientUnits="userSpaceOnUse">
<stop offset="0.11" stop-color="#FF4D4D"/>
<stop offset="0.24" stop-color="#FF4040"/>
<stop offset="0.49" stop-color="#FF2C2C"/>
<stop offset="0.75" stop-color="#FF2020"/>
<stop offset="1" stop-color="#FF1C1C"/>
</linearGradient>
<linearGradient id="paint15_linear_127_110" x1="2877.37" y1="6225.59" x2="2957.83" y2="6231.77" gradientUnits="userSpaceOnUse">
<stop offset="0.11" stop-color="#FF4D4D"/>
<stop offset="0.24" stop-color="#FF4040"/>
<stop offset="0.49" stop-color="#FF2C2C"/>
<stop offset="0.75" stop-color="#FF2020"/>
<stop offset="1" stop-color="#FF1C1C"/>
</linearGradient>
<linearGradient id="paint16_linear_127_110" x1="6746.17" y1="6078.44" x2="7135.28" y2="6108.29" gradientUnits="userSpaceOnUse">
<stop offset="0.11" stop-color="#FF4D4D"/>
<stop offset="0.24" stop-color="#FF4040"/>
<stop offset="0.49" stop-color="#FF2C2C"/>
<stop offset="0.75" stop-color="#FF2020"/>
<stop offset="1" stop-color="#FF1C1C"/>
</linearGradient>
<linearGradient id="paint17_linear_127_110" x1="6668.5" y1="4750.85" x2="6994.19" y2="4775.83" gradientUnits="userSpaceOnUse">
<stop offset="0.11" stop-color="#FF4D4D"/>
<stop offset="0.24" stop-color="#FF4040"/>
<stop offset="0.49" stop-color="#FF2C2C"/>
<stop offset="0.75" stop-color="#FF2020"/>
<stop offset="1" stop-color="#FF1C1C"/>
</linearGradient>
<linearGradient id="paint18_linear_127_110" x1="9541.92" y1="6641.48" x2="10140.2" y2="6687.37" gradientUnits="userSpaceOnUse">
<stop offset="0.11" stop-color="#FF4D4D"/>
<stop offset="0.24" stop-color="#FF4040"/>
<stop offset="0.49" stop-color="#FF2C2C"/>
<stop offset="0.75" stop-color="#FF2020"/>
<stop offset="1" stop-color="#FF1C1C"/>
</linearGradient>
<linearGradient id="paint19_linear_127_110" x1="8443.54" y1="4933.81" x2="8844" y2="4964.53" gradientUnits="userSpaceOnUse">
<stop offset="0.11" stop-color="#FF4D4D"/>
<stop offset="0.24" stop-color="#FF4040"/>
<stop offset="0.49" stop-color="#FF2C2C"/>
<stop offset="0.75" stop-color="#FF2020"/>
<stop offset="1" stop-color="#FF1C1C"/>
</linearGradient>
<linearGradient id="paint20_linear_127_110" x1="8347.77" y1="4781.72" x2="8698.01" y2="4808.58" gradientUnits="userSpaceOnUse">
<stop offset="0.11" stop-color="#FF4D4D"/>
<stop offset="0.24" stop-color="#FF4040"/>
<stop offset="0.49" stop-color="#FF2C2C"/>
<stop offset="0.75" stop-color="#FF2020"/>
<stop offset="1" stop-color="#FF1C1C"/>
</linearGradient>
<linearGradient id="paint21_linear_127_110" x1="6179.53" y1="5365.03" x2="6355.94" y2="5378.56" gradientUnits="userSpaceOnUse">
<stop offset="0.11" stop-color="#FF4D4D"/>
<stop offset="0.24" stop-color="#FF4040"/>
<stop offset="0.49" stop-color="#FF2C2C"/>
<stop offset="0.75" stop-color="#FF2020"/>
<stop offset="1" stop-color="#FF1C1C"/>
</linearGradient>
<linearGradient id="paint22_linear_127_110" x1="8708.73" y1="4764.51" x2="9035.18" y2="4789.55" gradientUnits="userSpaceOnUse">
<stop offset="0.11" stop-color="#FF4D4D"/>
<stop offset="0.24" stop-color="#FF4040"/>
<stop offset="0.49" stop-color="#FF2C2C"/>
<stop offset="0.75" stop-color="#FF2020"/>
<stop offset="1" stop-color="#FF1C1C"/>
</linearGradient>
<linearGradient id="paint23_linear_127_110" x1="127.786" y1="247.647" x2="33.2293" y2="157.15" gradientUnits="userSpaceOnUse">
<stop offset="0.07" stop-color="#2C82C4"/>
<stop offset="0.19" stop-color="#2C82C4"/>
<stop offset="0.39" stop-color="#1B96CA"/>
<stop offset="0.6" stop-color="#1790C1"/>
<stop offset="0.8" stop-color="#37AFE1"/>
<stop offset="1" stop-color="#2EA8DA"/>
</linearGradient>
</defs>
</svg>
