<svg width="68" height="87" viewBox="0 0 68 87" fill="none" xmlns="http://www.w3.org/2000/svg">
<path d="M4.26012 0.0830078C3.27392 0.0830078 2.32811 0.586487 1.63077 1.48269C0.933422 2.37889 0.541656 3.59439 0.541656 4.86181C0.541656 26.4079 7.20166 47.0715 19.0566 62.3069C30.9115 77.5423 46.9901 86.1015 63.7555 86.1015C64.7417 86.1015 65.6875 85.598 66.3848 84.7018C67.0822 83.8056 67.4739 82.5901 67.4739 81.3227V64.5968C67.4739 63.3294 67.0822 62.1139 66.3848 61.2177C65.6875 60.3215 64.7417 59.818 63.7555 59.818C59.1446 59.818 54.6453 58.8623 50.4806 57.0941C49.1791 56.5685 47.7289 56.9508 46.6878 58.2888L38.5071 68.8022C27.9839 61.9207 19.3943 50.8339 14.0025 37.3099L22.1831 26.7487C23.2243 25.4585 23.5217 23.5947 23.1127 21.9221C21.7369 16.5699 20.9932 10.7875 20.9932 4.86181C20.9932 3.59439 20.6014 2.37889 19.9041 1.48269C19.2067 0.586487 18.2609 0.0830078 17.2747 0.0830078H4.26012Z" fill="#2C82C4"/>
</svg>
