<svg width="40" height="41" viewBox="0 0 40 41" fill="none" xmlns="http://www.w3.org/2000/svg">
<path d="M14.8571 0.129883C18.7975 0.129883 22.5765 1.69518 25.3627 4.48144C28.149 7.26769 29.7143 11.0467 29.7143 14.987C29.7143 18.667 28.3657 22.0499 26.1486 24.6556L26.7657 25.2727H28.5714L40 36.7013L36.5714 40.1299L25.1429 28.7013V26.8956L24.5257 26.2785C21.92 28.4956 18.5371 29.8442 14.8571 29.8442C10.9168 29.8442 7.13781 28.2789 4.35156 25.4926C1.5653 22.7064 0 18.9274 0 14.987C0 11.0467 1.5653 7.26769 4.35156 4.48144C7.13781 1.69518 10.9168 0.129883 14.8571 0.129883ZM14.8571 4.70131C9.14286 4.70131 4.57143 9.27274 4.57143 14.987C4.57143 20.7013 9.14286 25.2727 14.8571 25.2727C20.5714 25.2727 25.1429 20.7013 25.1429 14.987C25.1429 9.27274 20.5714 4.70131 14.8571 4.70131Z" fill="#D6D6D6"/>
</svg>
