<svg width="355" height="61" viewBox="0 0 355 61" fill="none" xmlns="http://www.w3.org/2000/svg">
<path d="M30.4889 48.2721L11.6468 60.0635L16.6469 37.84L0 22.8873L21.9215 20.9274L30.4889 0L39.0563 20.9274L60.9778 22.8873L44.3614 37.84L49.3311 60.0635L30.4889 48.2721Z" fill="#FFC000"/>
<path d="M105.107 48.2721L85.7685 60.0635L90.9003 37.84L73.8153 22.8873L96.3137 20.9274L105.107 0L113.899 20.9274L136.398 22.8873L119.344 37.84L124.445 60.0635L105.107 48.2721Z" fill="#FFC000"/>
<path d="M175.712 48.2721L156.374 60.0635L161.506 37.84L144.421 22.8873L166.92 20.9274L175.712 0L184.505 20.9274L207.004 22.8873L189.95 37.84L195.05 60.0635L175.712 48.2721Z" fill="#FFC000"/>
<path d="M249.528 48.2721L230.19 60.0635L235.321 37.84L218.236 22.8873L240.735 20.9274L249.528 0L258.321 20.9274L280.819 22.8873L263.765 37.84L268.866 60.0635L249.528 48.2721Z" fill="#FFC000"/>
<path d="M324.145 48.2721L305.303 60.0635L310.303 37.84L293.656 22.8873L315.578 20.9274L324.145 0L332.713 20.9274L354.634 22.8873L338.018 37.84L342.987 60.0635L324.145 48.2721Z" fill="#FFC000"/>
</svg>
