<svg width="221" height="38" viewBox="0 0 221 38" fill="none" xmlns="http://www.w3.org/2000/svg">
<path d="M19 30.0824L7.258 37.4307L10.374 23.5813L-3.8147e-06 14.2631L13.661 13.0416L19 0L24.339 13.0416L38 14.2631L27.645 23.5813L30.742 37.4307L19 30.0824Z" fill="#FFC905"/>
<path d="M65.5 30.0824L53.449 37.4307L56.647 23.5813L46 14.2631L60.0205 13.0416L65.5 0L70.9795 13.0416L85 14.2631L74.3725 23.5813L77.551 37.4307L65.5 30.0824Z" fill="#FFC905"/>
<path d="M109.5 30.0824L97.449 37.4307L100.647 23.5813L90 14.2631L104.02 13.0416L109.5 0L114.98 13.0416L129 14.2631L118.373 23.5813L121.551 37.4307L109.5 30.0824Z" fill="#FFC905"/>
<path d="M155.5 30.0824L143.449 37.4307L146.647 23.5813L136 14.2631L150.02 13.0416L155.5 0L160.98 13.0416L175 14.2631L164.373 23.5813L167.551 37.4307L155.5 30.0824Z" fill="#FFC905"/>
<path d="M202 30.0824L190.258 37.4307L193.374 23.5813L183 14.2631L196.661 13.0416L202 0L207.339 13.0416L221 14.2631L210.645 23.5813L213.742 37.4307L202 30.0824Z" fill="#FFC905"/>
</svg>
